# xmcd
#
# Track frame offsets: 
#        150
#        18125
#        33537
#        51100
#        66177
#        79102
#        97080
#        118395
#        135037
#
# Disc length: 2063 seconds
#
# Revision: 2
# Processed by: cddbd v1.5.1PL2 Copyright (c) Steve Scherf et al.
# Submitted via: ExactAudioCopy v0.95b4
#
DISCID=71080d09
DTITLE=Vince Gill - I Never Knew Lonely
DYEAR=1992
DGENRE=Country
TTITLE0=I Never Knew Lonely
TTITLE1=What if I Say Goodbye
TTITLE2=The Way Back Home
TTITLE3=Livin' the Way I Do
TTITLE4=Everybody's Sweetheart
TTITLE5=True Love
TTITLE6=Losing Your Love
TTITLE7=Midnight Train
TTITLE8=Colder Than Winter
EXTD=
EXTT0=
EXTT1=
EXTT2=
EXTT3=
EXTT4=
EXTT5=
EXTT6=
EXTT7=
EXTT8=
PLAYORDER=
